<?xml version="1.0" encoding="utf-8"?><!-- Uploaded to: SVG Repo, www.svgrepo.com, Generator: SVG Repo Mixer Tools -->
<svg fill="#000000" width="800px" height="800px" viewBox="0 0 24 24" id="microphone-right" data-name="Flat Color" xmlns="http://www.w3.org/2000/svg" class="icon flat-color"><path id="secondary" d="M3,22a1,1,0,0,1-.71-.29,1,1,0,0,1,0-1.42l4.1-4.1a1,1,0,1,1,1.42,1.42l-4.1,4.1A1,1,0,0,1,3,22Z" style="fill: rgb(44, 169, 188);"></path><path id="primary" d="M20.54,3.46A5,5,0,0,0,12,6.86L5.57,14.12a2,2,0,0,0,.08,2.74l1.49,1.49a2,2,0,0,0,1.42.59,2,2,0,0,0,1.32-.51L17.14,12a5,5,0,0,0,3.4-8.52Z" style="fill: rgb(0, 0, 0);"></path><path id="secondary-2" data-name="secondary" d="M17.71,13a1,1,0,0,1-.71-.29L11.34,7a1,1,0,0,1,0-1.41,1,1,0,0,1,1.42,0l5.65,5.65a1,1,0,0,1-.7,1.71Z" style="fill: rgb(44, 169, 188);"></path></svg>