<?xml version="1.0" encoding="iso-8859-1"?>
<!-- Uploaded to: SVG Repo, www.svgrepo.com, Generator: SVG Repo Mixer Tools -->
<svg version="1.1" id="Layer_1" xmlns="http://www.w3.org/2000/svg" xmlns:xlink="http://www.w3.org/1999/xlink" 
	 viewBox="0 0 511.999 511.999" xml:space="preserve">
<g>
	<rect x="310.489" y="366.531" style="fill:#D7D5D9;" width="23.944" height="62.243"/>
	<rect x="412.943" y="366.531" style="fill:#D7D5D9;" width="23.944" height="62.243"/>
	<path style="fill:#D7D5D9;" d="M245.053,444.985h218.905c21.212,0,38.567-13.309,38.567-34.521v-4.141h-23.329
		c0,7.233-5.918,13.151-13.151,13.151H245.053V444.985z"/>
</g>
<g>
	<rect x="310.489" y="406.327" style="fill:#77757E;" width="23.944" height="13.151"/>
	<rect x="412.943" y="406.327" style="fill:#77757E;" width="23.944" height="13.151"/>
	<rect x="310.489" y="375.049" style="fill:#77757E;" width="23.944" height="13.151"/>
	<rect x="412.943" y="375.049" style="fill:#77757E;" width="23.944" height="13.151"/>
</g>
<rect x="283.105" y="79.873" style="fill:#D7D5D9;" width="26.575" height="64.934"/>
<path style="fill:#174F79;" d="M263.969,176.629v-29.972c0-5.845,4.783-10.628,10.628-10.628h44.082
	c5.845,0,10.628,4.783,10.628,10.628v29.972H263.969z"/>
<path style="fill:#73AFD6;" d="M309.164,375.05h157.172c20.485,0,37.245-16.76,37.245-37.245v-34.501
	c0-73.944-60.5-134.443-134.443-134.443h-85.164H79.117l-29.861-44.264H7.587l30.348,134.691l38.125,3.452l11.48-39.05
	l150.021,18.736v62.267c0,38.858,31.501,70.36,70.36,70.36h1.245V375.05z"/>
<g>
	<rect x="292.887" y="193.336" style="fill:#D3EFFD;" width="58.569" height="98.317"/>
	<path style="fill:#D3EFFD;" d="M462.012,348.127h-76.497c-2.753,0-4.983-2.232-4.983-4.983v-21.16c0-2.753,2.232-4.983,4.983-4.983
		h92.994v14.629C478.509,340.742,471.123,348.127,462.012,348.127z"/>
</g>
<g>
	<path style="fill:#77757E;" d="M283.78,92.733H101.724c-7.072,0-12.859-5.786-12.859-12.859l0,0
		c0-7.072,5.786-12.859,12.859-12.859h182.056c7.072,0,12.859,5.786,12.859,12.859l0,0C296.639,86.945,290.852,92.733,283.78,92.733
		z"/>
	<path style="fill:#77757E;" d="M491.553,92.733H309.497c-7.072,0-12.859-5.786-12.859-12.859l0,0
		c0-7.072,5.786-12.859,12.859-12.859h182.056c7.072,0,12.859,5.786,12.859,12.859l0,0
		C504.413,86.945,498.626,92.733,491.553,92.733z"/>
</g>
<rect x="292.887" y="242.5" style="opacity:0.5;fill:#FFFFFF;enable-background:new    ;" width="58.569" height="49.157"/>
<path style="fill:#D3EFFD;" d="M392.549,291.649l110.567,0.474c-5.35-64.81-57.212-117.043-122.008-122.829l-0.473,110.337
	C380.607,286.241,385.942,291.621,392.549,291.649z"/>
<g style="opacity:0.5;">
	<path style="fill:#FFFFFF;" d="M458.558,203.032l-77.941,56.603l-0.085,19.901c-0.028,6.609,5.306,11.988,11.915,12.017
		l16.399,0.071l76.568-55.606C478.24,223.653,469.148,212.523,458.558,203.032z"/>
</g>
<polygon style="fill:#174F79;" points="237.783,242.2 237.783,216.474 142.064,230.486 "/>
<g style="opacity:0.3;">
	<path style="fill:#174F79;" d="M436.979,375.227h29.449c20.485,0,37.245-16.76,37.245-37.245v-11.081H241.19
		c9.249,28.062,35.661,48.326,66.82,48.326h1.245h1.322h23.944h78.512H436.979z"/>
</g>
<path d="M369.136,161.273h-32.242v-14.616c0-10.044-8.172-18.215-18.215-18.215h-1.412v-28.124h174.286
	c11.274,0,20.445-9.171,20.445-20.445s-9.172-20.446-20.445-20.446H309.497c-4.87,0-9.343,1.718-12.858,4.57
	c-3.516-2.854-7.989-4.57-12.859-4.57H101.724c-11.274,0-20.445,9.172-20.445,20.446s9.172,20.445,20.445,20.445h173.792v28.124
	h-0.919c-10.043,0-18.215,8.171-18.215,18.215v14.616H83.152l-27.605-40.921c-1.41-2.09-3.767-3.344-6.289-3.344H7.587
	c-2.305,0-4.485,1.048-5.925,2.848c-1.44,1.801-1.983,4.158-1.476,6.406l30.348,134.69c0.723,3.213,3.437,5.591,6.717,5.889
	l38.125,3.452c3.612,0.322,6.942-1.943,7.963-5.416l9.66-32.861l136.974,17.106v55.568c0,41.292,32.279,75.169,72.927,77.767v29.429
	h-57.847c-4.19,0-7.587,3.396-7.587,7.587v25.511c0,4.191,3.397,7.587,7.587,7.587h218.905c26.744,0,46.154-17.709,46.154-42.108
	v-4.141c0-4.191-3.397-7.587-7.587-7.587h-23.329c-4.19,0-7.587,3.396-7.587,7.587c0,3.068-2.496,5.564-5.564,5.564h-21.57v-29.25
	h21.862c24.72,0,44.831-20.112,44.831-44.831v-34.501C511.167,224.988,447.452,161.273,369.136,161.273z M494.536,284.068h-102.04
	c-2.415,0-4.379-1.964-4.379-4.378V177.869C442.818,186.111,486.186,229.404,494.536,284.068z M309.497,74.602h182.056
	c2.907,0,5.271,2.365,5.271,5.272c0,2.857-2.415,5.271-5.271,5.271H309.497c-2.858,0-5.271-2.415-5.271-5.271
	C304.226,76.966,306.591,74.602,309.497,74.602z M96.451,79.873c0-2.907,2.365-5.272,5.271-5.272h182.056
	c2.907,0,5.272,2.365,5.272,5.272c0,2.906-2.365,5.271-5.272,5.271H101.724C98.866,85.145,96.451,82.731,96.451,79.873z
	 M290.69,99.092c2.175-0.785,4.186-1.912,5.949-3.343c1.63,1.322,3.47,2.386,5.456,3.162v29.533h-11.404V99.092H290.69z
	 M271.556,146.658c0-1.648,1.392-3.041,3.041-3.041h44.082c1.648,0,3.041,1.393,3.041,3.041v14.616h-50.164L271.556,146.658
	L271.556,146.658z M318.074,382.636h8.77v29.25h-8.77V382.636z M405.355,382.636v29.25h-63.338v-29.25H405.355z M485.345,413.91
	h9.398c-1.866,16.109-16.824,23.488-30.785,23.488H252.64v-10.337h56.157c0.544,0.124,1.109,0.195,1.69,0.195h23.943
	c0.582,0,1.146-0.072,1.69-0.195h75.131c0.544,0.124,1.109,0.195,1.69,0.195h23.944c0.582,0,1.146-0.072,1.69-0.195h27.467
	C474.802,427.061,482.31,421.603,485.345,413.91z M429.3,411.887h-8.771v-29.251h8.771V411.887z M495.993,337.805
	c0,16.353-13.305,29.657-29.657,29.657h-29.449h-23.944h-78.512h-23.943h-2.568c-34.613,0-62.772-28.16-62.772-62.773v-62.266
	c0-3.826-2.85-7.055-6.646-7.528L88.479,216.16c-0.318-0.039-0.633-0.06-0.946-0.06c-3.325,0-6.315,2.187-7.273,5.448l-9.722,33.071
	l-26.416-2.391L17.073,132.182h28.15l27.605,40.921c1.411,2.09,3.768,3.344,6.29,3.344h290.018c1.275,0,2.543,0.024,3.809,0.062
	v103.18c0,10.781,8.772,19.552,19.553,19.552h103.424c0.042,1.349,0.072,2.702,0.072,4.062v34.503H495.993z"/>
<path d="M351.458,185.754h-58.569c-4.19,0-7.587,3.396-7.587,7.587v98.315c0,4.191,3.397,7.587,7.587,7.587h58.569
	c4.19,0,7.587-3.396,7.587-7.587v-98.315C359.045,189.15,355.648,185.754,351.458,185.754z M343.871,200.928v33.984h-43.395v-33.984
	H343.871z M300.476,284.068v-33.984h43.395v33.984H300.476z"/>
<path d="M478.509,309.415h-97.977c-4.19,0-7.587,3.396-7.587,7.587v31.127c0,4.191,3.397,7.587,7.587,7.587h81.48
	c13.28,0,24.084-10.805,24.084-24.085v-14.629C486.096,312.81,482.7,309.415,478.509,309.415z M470.922,331.63
	c0,4.913-3.997,8.911-8.91,8.911h-73.893v-15.953h82.803L470.922,331.63L470.922,331.63z"/>
</svg>