<?xml version="1.0" encoding="UTF-8"?>
<svg width="1024" height="1024" viewBox="0 0 1024 1024" xmlns="http://www.w3.org/2000/svg" role="img" aria-label="Gold spiral on white background">
  <rect width="100%" height="100%" fill="#ffffff"/>
  <path d="M 514.500 512.000 L 514.725 512.095 L 514.947 512.206 L 515.163 512.332 L 515.374 512.474 L 515.579 512.631 L 515.777 512.803 L 515.967 512.989 L 516.148 513.189 L 516.320 513.404 L 516.481 513.631 L 516.632 513.871 L 516.771 514.124 L 516.898 514.389 L 517.012 514.665 L 517.112 514.952 L 517.199 515.249 L 517.270 515.555 L 517.327 515.870 L 517.367 516.193 L 517.391 516.524 L 517.399 516.861 L 517.389 517.204 L 517.362 517.552 L 517.317 517.905 L 517.253 518.260 L 517.171 518.619 L 517.070 518.979 L 516.951 519.339 L 516.812 519.700 L 516.653 520.060 L 516.476 520.418 L 516.279 520.773 L 516.062 521.124 L 515.826 521.471 L 515.571 521.812 L 515.297 522.146 L 515.003 522.473 L 514.691 522.792 L 514.360 523.101 L 514.010 523.400 L 513.643 523.688 L 513.257 523.964 L 512.855 524.227 L 512.436 524.476 L 512.000 524.710 L 511.549 524.929 L 511.082 525.132 L 510.600 525.317 L 510.105 525.485 L 509.596 525.634 L 509.074 525.764 L 508.541 525.874 L 507.996 525.963 L 507.441 526.030 L 506.877 526.076 L 506.304 526.099 L 505.723 526.099 L 505.135 526.075 L 504.542 526.027 L 503.943 525.955 L 503.341 525.857 L 502.736 525.735 L 502.129 525.587 L 501.521 525.413 L 500.913 525.213 L 500.307 524.986 L 499.703 524.734 L 499.103 524.454 L 498.508 524.148 L 497.918 523.816 L 497.336 523.457 L 496.761 523.072 L 496.196 522.660 L 495.641 522.222 L 495.098 521.758 L 494.567 521.269 L 494.050 520.755 L 493.549 520.215 L 493.063 519.651 L 492.594 519.063 L 492.144 518.452 L 491.712 517.817 L 491.302 517.161 L 490.912 516.482 L 490.545 515.783 L 490.201 515.064 L 489.882 514.325 L 489.588 513.567 L 489.320 512.792 L 489.080 512.000 L 488.867 511.192 L 488.683 510.370 L 488.528 509.533 L 488.404 508.684 L 488.311 507.823 L 488.249 506.952 L 488.219 506.071 L 488.223 505.182 L 488.259 504.286 L 488.330 503.385 L 488.435 502.479 L 488.574 501.570 L 488.748 500.659 L 488.958 499.748 L 489.203 498.838 L 489.484 497.930 L 489.800 497.026 L 490.153 496.127 L 490.541 495.235 L 490.966 494.350 L 491.426 493.475 L 491.922 492.611 L 492.453 491.759 L 493.020 490.920 L 493.621 490.097 L 494.257 489.290 L 494.927 488.501 L 495.631 487.731 L 496.367 486.982 L 497.136 486.256 L 497.937 485.552 L 498.770 484.874 L 499.632 484.221 L 500.524 483.596 L 501.445 483.000 L 502.393 482.433 L 503.368 481.898 L 504.369 481.395 L 505.395 480.925 L 506.444 480.490 L 507.515 480.091 L 508.608 479.728 L 509.721 479.403 L 510.852 479.116 L 512.000 478.869 L 513.164 478.663 L 514.343 478.497 L 515.534 478.374 L 516.737 478.293 L 517.950 478.256 L 519.171 478.262 L 520.399 478.313 L 521.632 478.408 L 522.869 478.549 L 524.107 478.735 L 525.346 478.968 L 526.583 479.246 L 527.816 479.571 L 529.045 479.943 L 530.267 480.361 L 531.480 480.825 L 532.683 481.336 L 533.874 481.893 L 535.051 482.496 L 536.213 483.144 L 537.357 483.838 L 538.482 484.577 L 539.586 485.361 L 540.668 486.188 L 541.725 487.058 L 542.756 487.971 L 543.759 488.926 L 544.733 489.921 L 545.676 490.957 L 546.587 492.031 L 547.463 493.144 L 548.303 494.294 L 549.106 495.479 L 549.871 496.699 L 550.595 497.953 L 551.277 499.238 L 551.917 500.554 L 552.512 501.899 L 553.062 503.272 L 553.565 504.671 L 554.020 506.094 L 554.426 507.541 L 554.782 509.008 L 555.088 510.495 L 555.341 512.000 L 555.541 513.520 L 555.688 515.055 L 555.780 516.601 L 555.818 518.158 L 555.799 519.723 L 555.725 521.294 L 555.594 522.869 L 555.407 524.447 L 555.162 526.024 L 554.859 527.599 L 554.499 529.171 L 554.081 530.736 L 553.605 532.292 L 553.072 533.839 L 552.482 535.372 L 551.834 536.891 L 551.129 538.393 L 550.367 539.876 L 549.550 541.337 L 548.677 542.776 L 547.749 544.189 L 546.767 545.574 L 545.732 546.931 L 544.644 548.255 L 543.505 549.546 L 542.315 550.802 L 541.076 552.019 L 539.788 553.198 L 538.454 554.335 L 537.074 555.429 L 535.649 556.478 L 534.182 557.480 L 532.674 558.434 L 531.126 559.337 L 529.539 560.189 L 527.917 560.988 L 526.260 561.732 L 524.571 562.419 L 522.851 563.049 L 521.102 563.620 L 519.327 564.131 L 517.526 564.581 L 515.704 564.968 L 513.861 565.292 L 512.000 565.551 L 510.123 565.745 L 508.233 565.873 L 506.331 565.934 L 504.421 565.928 L 502.504 565.855 L 500.583 565.712 L 498.661 565.501 L 496.739 565.221 L 494.821 564.872 L 492.909 564.453 L 491.005 563.966 L 489.111 563.408 L 487.232 562.782 L 485.368 562.087 L 483.523 561.324 L 481.699 560.492 L 479.898 559.593 L 478.123 558.628 L 476.377 557.596 L 474.661 556.499 L 472.979 555.337 L 471.333 554.112 L 469.725 552.825 L 468.157 551.476 L 466.632 550.068 L 465.153 548.601 L 463.720 547.077 L 462.337 545.498 L 461.006 543.864 L 459.729 542.179 L 458.507 540.443 L 457.343 538.658 L 456.239 536.827 L 455.196 534.950 L 454.216 533.032 L 453.302 531.072 L 452.454 529.075 L 451.674 527.041 L 450.964 524.974 L 450.325 522.875 L 449.758 520.748 L 449.265 518.594 L 448.847 516.416 L 448.505 514.217 L 448.239 512.000 L 448.051 509.767 L 447.942 507.521 L 447.911 505.264 L 447.961 503.000 L 448.090 500.731 L 448.301 498.460 L 448.592 496.191 L 448.964 493.925 L 449.418 491.666 L 449.952 489.416 L 450.568 487.180 L 451.264 484.959 L 452.041 482.756 L 452.898 480.575 L 453.834 478.418 L 454.849 476.288 L 455.942 474.188 L 457.112 472.122 L 458.359 470.091 L 459.680 468.098 L 461.075 466.147 L 462.543 464.240 L 464.083 462.380 L 465.692 460.570 L 467.369 458.811 L 469.113 457.107 L 470.921 455.460 L 472.793 453.873 L 474.725 452.347 L 476.716 450.886 L 478.764 449.492 L 480.866 448.166 L 483.021 446.911 L 485.225 445.729 L 487.476 444.622 L 489.773 443.591 L 492.111 442.639 L 494.489 441.767 L 496.904 440.977 L 499.352 440.270 L 501.832 439.647 L 504.339 439.111 L 506.872 438.662 L 509.426 438.301 L 512.000 438.029 L 514.589 437.847 L 517.192 437.756 L 519.803 437.757 L 522.421 437.850 L 525.042 438.035 L 527.663 438.314 L 530.279 438.685 L 532.890 439.149 L 535.489 439.707 L 538.076 440.358 L 540.645 441.101 L 543.194 441.937 L 545.720 442.864 L 548.219 443.883 L 550.687 444.992 L 553.123 446.190 L 555.521 447.477 L 557.880 448.852 L 560.195 450.313 L 562.465 451.859 L 564.685 453.488 L 566.852 455.199 L 568.964 456.990 L 571.018 458.860 L 573.011 460.806 L 574.939 462.827 L 576.800 464.920 L 578.592 467.083 L 580.311 469.314 L 581.956 471.611 L 583.523 473.970 L 585.011 476.390 L 586.416 478.868 L 587.738 481.400 L 588.973 483.984 L 590.119 486.618 L 591.176 489.297 L 592.140 492.019 L 593.010 494.781 L 593.785 497.579 L 594.463 500.411 L 595.043 503.272 L 595.524 506.159 L 595.903 509.070 L 596.181 512.000 L 596.357 514.946 L 596.429 517.904 L 596.397 520.871 L 596.261 523.842 L 596.020 526.815 L 595.673 529.785 L 595.222 532.750 L 594.665 535.704 L 594.003 538.645 L 593.237 541.568 L 592.366 544.470 L 591.391 547.347 L 590.313 550.196 L 589.132 553.012 L 587.851 555.792 L 586.469 558.533 L 584.987 561.231 L 583.408 563.881 L 581.733 566.481 L 579.963 569.028 L 578.100 571.517 L 576.146 573.945 L 574.102 576.309 L 571.972 578.606 L 569.757 580.832 L 567.459 582.984 L 565.081 585.060 L 562.626 587.056 L 560.096 588.970 L 557.494 590.798 L 554.823 592.538 L 552.086 594.188 L 549.285 595.744 L 546.425 597.204 L 543.508 598.567 L 540.538 599.830 L 537.518 600.990 L 534.451 602.047 L 531.342 602.997 L 528.194 603.840 L 525.010 604.574 L 521.795 605.198 L 518.553 605.709 L 515.286 606.107 L 512.000 606.392 L 508.698 606.561 L 505.384 606.614 L 502.062 606.551 L 498.737 606.372 L 495.412 606.075 L 492.092 605.661 L 488.780 605.129 L 485.482 604.480 L 482.200 603.714 L 478.940 602.831 L 475.705 601.832 L 472.500 600.718 L 469.328 599.490 L 466.195 598.148 L 463.103 596.693 L 460.056 595.127 L 457.060 593.452 L 454.117 591.668 L 451.233 589.779 L 448.409 587.784 L 445.651 585.688 L 442.963 583.490 L 440.346 581.195 L 437.807 578.804 L 435.347 576.320 L 432.970 573.745 L 430.679 571.083 L 428.479 568.336 L 426.371 565.507 L 424.360 562.599 L 422.447 559.616 L 420.636 556.561 L 418.929 553.438 L 417.329 550.250 L 415.839 547.000 L 414.460 543.693 L 413.195 540.332 L 412.046 536.921 L 411.016 533.465 L 410.105 529.967 L 409.315 526.431 L 408.648 522.863 L 408.106 519.265 L 407.689 515.643 L 407.398 512.000 L 407.235 508.342 L 407.200 504.672 L 407.294 500.995 L 407.517 497.316 L 407.870 493.639 L 408.352 489.969 L 408.964 486.310 L 409.706 482.668 L 410.576 479.045 L 411.574 475.448 L 412.701 471.881 L 413.954 468.347 L 415.333 464.853 L 416.837 461.401 L 418.465 457.997 L 420.214 454.646 L 422.083 451.351 L 424.071 448.116 L 426.176 444.947 L 428.394 441.846 L 430.725 438.820 L 433.165 435.870 L 435.712 433.002 L 438.364 430.219 L 441.117 427.525 L 443.969 424.924 L 446.916 422.419 L 449.955 420.014 L 453.083 417.713 L 456.296 415.517 L 459.590 413.432 L 462.963 411.459 L 466.409 409.601 L 469.926 407.862 L 473.508 406.244 L 477.152 404.749 L 480.854 403.381 L 484.609 402.140 L 488.412 401.029 L 492.260 400.050 L 496.148 399.204 L 500.070 398.494 L 504.023 397.920 L 508.001 397.485 L 512.000 397.188 L 516.015 397.031 L 520.041 397.015 L 524.072 397.140 L 528.105 397.407 L 532.134 397.815 L 536.154 398.365 L 540.160 399.057 L 544.147 399.891 L 548.110 400.865 L 552.044 401.980 L 555.944 403.234 L 559.806 404.627 L 563.623 406.157 L 567.392 407.822 L 571.108 409.623 L 574.765 411.555 L 578.359 413.619 L 581.885 415.811 L 585.339 418.130 L 588.717 420.573 L 592.012 423.137 L 595.223 425.821 L 598.343 428.620 L 601.369 431.532 L 604.296 434.554 L 607.122 437.683 L 609.841 440.914 L 612.450 444.245 L 614.946 447.672 L 617.325 451.191 L 619.583 454.797 L 621.718 458.487 L 623.726 462.256 L 625.604 466.101 L 627.350 470.016 L 628.961 473.997 L 630.434 478.040 L 631.767 482.139 L 632.958 486.289 L 634.006 490.487 L 634.907 494.727 L 635.660 499.003 L 636.265 503.311 L 636.719 507.645 L 637.022 512.000 L 637.173 516.371 L 637.170 520.753 L 637.014 525.140 L 636.704 529.526 L 636.240 533.907 L 635.622 538.277 L 634.849 542.630 L 633.924 546.961 L 632.845 551.265 L 631.614 555.536 L 630.233 559.769 L 628.701 563.959 L 627.020 568.099 L 625.193 572.186 L 623.220 576.213 L 621.103 580.175 L 618.846 584.068 L 616.449 587.887 L 613.916 591.625 L 611.249 595.280 L 608.450 598.844 L 605.524 602.315 L 602.473 605.687 L 599.300 608.956 L 596.009 612.118 L 592.603 615.167 L 589.087 618.101 L 585.464 620.915 L 581.738 623.605 L 577.914 626.167 L 573.996 628.598 L 569.989 630.895 L 565.897 633.054 L 561.724 635.071 L 557.476 636.945 L 553.158 638.671 L 548.775 640.249 L 544.331 641.674 L 539.833 642.946 L 535.286 644.061 L 530.694 645.017 L 526.064 645.815 L 521.402 646.450 L 516.712 646.923 L 512.000 647.232 L 507.273 647.377 L 502.535 647.356 L 497.793 647.168 L 493.053 646.815 L 488.320 646.295 L 483.601 645.609 L 478.900 644.756 L 474.225 643.738 L 469.580 642.556 L 464.972 641.209 L 460.406 639.699 L 455.889 638.028 L 451.425 636.197 L 447.021 634.208 L 442.682 632.062 L 438.414 629.762 L 434.222 627.310 L 430.112 624.709 L 426.089 621.962 L 422.157 619.070 L 418.324 616.038 L 414.592 612.869 L 410.968 609.565 L 407.456 606.132 L 404.061 602.572 L 400.787 598.889 L 397.639 595.088 L 394.620 591.173 L 391.736 587.149 L 388.991 583.020 L 386.387 578.790 L 383.928 574.465 L 381.619 570.049 L 379.462 565.549 L 377.461 560.968 L 375.618 556.313 L 373.937 551.589 L 372.419 546.801 L 371.067 541.956 L 369.884 537.059 L 368.872 532.115 L 368.031 527.132 L 367.365 522.114 L 366.873 517.068 L 366.558 512.000 L 366.419 506.916 L 366.459 501.823 L 366.677 496.726 L 367.074 491.632 L 367.650 486.547 L 368.404 481.478 L 369.337 476.430 L 370.447 471.410 L 371.734 466.425 L 373.197 461.480 L 374.834 456.581 L 376.644 451.736 L 378.626 446.949 L 380.777 442.228 L 383.096 437.577 L 385.579 433.003 L 388.225 428.513 L 391.030 424.111 L 393.993 419.803 L 397.108 415.595 L 400.374 411.492 L 403.787 407.500 L 407.342 403.624 L 411.036 399.868 L 414.865 396.239 L 418.825 392.741 L 422.910 389.378 L 427.117 386.156 L 431.440 383.078 L 435.875 380.148 L 440.417 377.372 L 445.059 374.751 L 449.798 372.292 L 454.626 369.995 L 459.540 367.866 L 464.532 365.908 L 469.597 364.122 L 474.728 362.512 L 479.921 361.080 L 485.168 359.829 L 490.464 358.761 L 495.801 357.877 L 501.174 357.179 L 506.576 356.669 L 512.000 356.347 L 517.440 356.215 L 522.889 356.274 L 528.341 356.523 L 533.789 356.963 L 539.226 357.595 L 544.645 358.417 L 550.040 359.430 L 555.404 360.632 L 560.730 362.023 L 566.012 363.602 L 571.243 365.367 L 576.417 367.317 L 581.527 369.449 L 586.566 371.762 L 591.528 374.253 L 596.407 376.920 L 601.197 379.760 L 605.891 382.770 L 610.483 385.947 L 614.968 389.287 L 619.340 392.787 L 623.593 396.442 L 627.721 400.249 L 631.719 404.204 L 635.582 408.302 L 639.305 412.539 L 642.882 416.909 L 646.309 421.408 L 649.581 426.030 L 652.694 430.770 L 655.643 435.623 L 658.425 440.584 L 661.036 445.645 L 663.471 450.802 L 665.728 456.048 L 667.803 461.377 L 669.693 466.782 L 671.395 472.258 L 672.907 477.798 L 674.226 483.395 L 675.350 489.043 L 676.277 494.734 L 677.006 500.462 L 677.535 506.219 L 677.863 512.000 L 677.989 517.796 L 677.911 523.602 L 677.631 529.409 L 677.147 535.210 L 676.460 540.999 L 675.570 546.768 L 674.477 552.510 L 673.182 558.218 L 671.687 563.885 L 669.992 569.504 L 668.099 575.068 L 666.011 580.570 L 663.728 586.002 L 661.253 591.359 L 658.589 596.633 L 655.738 601.818 L 652.704 606.906 L 649.490 611.892 L 646.099 616.769 L 642.534 621.531 L 638.801 626.172 L 634.902 630.685 L 630.843 635.066 L 626.628 639.307 L 622.261 643.404 L 617.747 647.350 L 613.093 651.142 L 608.302 654.773 L 603.381 658.240 L 598.335 661.536 L 593.170 664.659 L 587.892 667.602 L 582.508 670.363 L 577.023 672.938 L 571.444 675.322 L 565.779 677.513 L 560.032 679.507 L 554.212 681.302 L 548.325 682.894 L 542.378 684.281 L 536.378 685.461 L 530.333 686.431 L 524.251 687.191 L 518.137 687.739 L 512.000 688.073 L 505.847 688.192 L 499.686 688.097 L 493.524 687.785 L 487.369 687.258 L 481.228 686.515 L 475.109 685.557 L 469.020 684.384 L 462.967 682.997 L 456.959 681.397 L 451.003 679.587 L 445.107 677.566 L 439.277 675.338 L 433.522 672.904 L 427.847 670.268 L 422.262 667.431 L 416.772 664.397 L 411.384 661.169 L 406.106 657.750 L 400.945 654.144 L 395.906 650.356 L 390.996 646.389 L 386.222 642.247 L 381.590 637.936 L 377.106 633.460 L 372.775 628.824 L 368.604 624.033 L 364.598 619.094 L 360.762 614.011 L 357.102 608.791 L 353.621 603.440 L 350.326 597.963 L 347.221 592.368 L 344.309 586.661 L 341.595 580.848 L 339.083 574.937 L 336.776 568.934 L 334.678 562.846 L 332.791 556.682 L 331.119 550.447 L 329.664 544.151 L 328.428 537.799 L 327.414 531.401 L 326.623 524.963 L 326.057 518.493 L 325.717 512.000" fill="none" stroke="#D4AF37" stroke-width="10" stroke-linecap="round" stroke-linejoin="round" />
</svg>
